<svg width="493" height="527" viewBox="0 0 493 527" fill="none" xmlns="http://www.w3.org/2000/svg">
    <rect width="493" height="527" fill="white"/>
    <path d="M109.604 443H107.793V430.361H92.7812V443H90.9883V417.301H92.7812V428.709H107.793V417.301H109.604V443ZM124.176 443.352C121.398 443.352 119.23 442.496 117.672 440.785C116.125 439.074 115.352 436.678 115.352 433.596C115.352 430.549 116.102 428.111 117.602 426.283C119.102 424.443 121.123 423.523 123.666 423.523C125.916 423.523 127.691 424.309 128.992 425.879C130.293 427.449 130.943 429.582 130.943 432.277V433.684H117.18C117.203 436.309 117.812 438.312 119.008 439.695C120.215 441.078 121.938 441.77 124.176 441.77C125.266 441.77 126.221 441.693 127.041 441.541C127.873 441.389 128.922 441.061 130.188 440.557V442.139C129.109 442.607 128.113 442.924 127.199 443.088C126.285 443.264 125.277 443.352 124.176 443.352ZM123.666 425.07C121.826 425.07 120.35 425.68 119.236 426.898C118.123 428.105 117.473 429.852 117.285 432.137H129.098C129.098 429.922 128.617 428.193 127.656 426.951C126.695 425.697 125.365 425.07 123.666 425.07ZM148.346 425.404H141.982V443H140.26V425.404H133.738V423.893H148.346V425.404ZM174.854 443H173.131V425.51H166.363C166.012 430.139 165.578 433.672 165.062 436.109C164.559 438.535 163.902 440.322 163.094 441.471C162.297 442.607 161.26 443.176 159.982 443.176C159.525 443.176 159.127 443.129 158.787 443.035V441.453C159.01 441.523 159.326 441.559 159.736 441.559C161.061 441.559 162.127 440.164 162.936 437.375C163.756 434.574 164.377 430.08 164.799 423.893H174.854V443ZM197.055 433.42C197.055 436.537 196.299 438.975 194.787 440.732C193.275 442.479 191.189 443.352 188.529 443.352C186.854 443.352 185.377 442.947 184.1 442.139C182.822 441.33 181.844 440.17 181.164 438.658C180.484 437.146 180.145 435.4 180.145 433.42C180.145 430.303 180.9 427.877 182.412 426.143C183.924 424.396 185.998 423.523 188.635 423.523C191.26 423.523 193.316 424.408 194.805 426.178C196.305 427.936 197.055 430.35 197.055 433.42ZM181.973 433.42C181.973 436.045 182.547 438.096 183.695 439.572C184.855 441.037 186.49 441.77 188.6 441.77C190.709 441.77 192.338 441.037 193.486 439.572C194.646 438.096 195.227 436.045 195.227 433.42C195.227 430.783 194.641 428.738 193.469 427.285C192.309 425.832 190.674 425.105 188.564 425.105C186.455 425.105 184.826 425.832 183.678 427.285C182.541 428.727 181.973 430.771 181.973 433.42ZM213.578 425.404H204.086V443H202.346V423.893H213.578V425.404ZM233.301 433.42C233.301 436.537 232.545 438.975 231.033 440.732C229.521 442.479 227.436 443.352 224.775 443.352C223.1 443.352 221.623 442.947 220.346 442.139C219.068 441.33 218.09 440.17 217.41 438.658C216.73 437.146 216.391 435.4 216.391 433.42C216.391 430.303 217.146 427.877 218.658 426.143C220.17 424.396 222.244 423.523 224.881 423.523C227.506 423.523 229.562 424.408 231.051 426.178C232.551 427.936 233.301 430.35 233.301 433.42ZM218.219 433.42C218.219 436.045 218.793 438.096 219.941 439.572C221.102 441.037 222.736 441.77 224.846 441.77C226.955 441.77 228.584 441.037 229.732 439.572C230.893 438.096 231.473 436.045 231.473 433.42C231.473 430.783 230.887 428.738 229.715 427.285C228.555 425.832 226.92 425.105 224.811 425.105C222.701 425.105 221.072 425.832 219.924 427.285C218.787 428.727 218.219 430.771 218.219 433.42ZM258.314 423.893H260.477L251.916 433.139L261.092 443H258.754L249.719 433.314V443H247.943V423.893H249.719V433.174L258.314 423.893ZM280.27 433.42C280.27 436.537 279.514 438.975 278.002 440.732C276.49 442.479 274.404 443.352 271.744 443.352C270.068 443.352 268.592 442.947 267.314 442.139C266.037 441.33 265.059 440.17 264.379 438.658C263.699 437.146 263.359 435.4 263.359 433.42C263.359 430.303 264.115 427.877 265.627 426.143C267.139 424.396 269.213 423.523 271.85 423.523C274.475 423.523 276.531 424.408 278.02 426.178C279.52 427.936 280.27 430.35 280.27 433.42ZM265.188 433.42C265.188 436.045 265.762 438.096 266.91 439.572C268.07 441.037 269.705 441.77 271.814 441.77C273.924 441.77 275.553 441.037 276.701 439.572C277.861 438.096 278.441 436.045 278.441 433.42C278.441 430.783 277.855 428.738 276.684 427.285C275.523 425.832 273.889 425.105 271.779 425.105C269.67 425.105 268.041 425.832 266.893 427.285C265.756 428.727 265.188 430.771 265.188 433.42ZM294.455 441.137L295.545 438.061L301.047 423.893H303.455V443H301.803V426.002C301.545 426.74 301.27 427.496 300.977 428.27C300.695 429.043 298.785 433.953 295.246 443H293.699L288.408 429.57C288.186 429.031 287.975 428.463 287.775 427.865C287.588 427.268 287.377 426.623 287.143 425.932V443H285.561V423.893H287.863L293.383 437.955C293.816 439.092 294.174 440.152 294.455 441.137ZM311.594 443H309.854V423.893H325.094V443H323.354V425.545H311.594V443ZM343.111 443L342.672 439.977H342.531C341.57 441.207 340.58 442.08 339.561 442.596C338.553 443.1 337.357 443.352 335.975 443.352C334.1 443.352 332.641 442.871 331.598 441.91C330.555 440.949 330.033 439.619 330.033 437.92C330.033 436.057 330.807 434.609 332.354 433.578C333.912 432.547 336.162 432.002 339.104 431.943L342.742 431.838V430.572C342.742 428.756 342.373 427.385 341.635 426.459C340.896 425.533 339.707 425.07 338.066 425.07C336.297 425.07 334.463 425.562 332.564 426.547L331.914 425.035C334.012 424.051 336.086 423.559 338.137 423.559C340.234 423.559 341.799 424.104 342.83 425.193C343.873 426.283 344.395 427.982 344.395 430.291V443H343.111ZM336.08 441.77C338.119 441.77 339.725 441.189 340.896 440.029C342.08 438.857 342.672 437.234 342.672 435.16V433.279L339.332 433.42C336.648 433.549 334.732 433.971 333.584 434.686C332.447 435.389 331.879 436.49 331.879 437.99C331.879 439.186 332.242 440.117 332.969 440.785C333.707 441.441 334.744 441.77 336.08 441.77ZM352.34 423.893V432.277H364.469V423.893H366.191V443H364.469V433.789H352.34V443H350.6V423.893H352.34ZM374.26 423.893V437.709L374.154 441.312L385.492 423.893H387.812V443H386.143V429.271L386.213 425.58L374.875 443H372.607V423.893H374.26ZM395.881 423.893V437.709L395.775 441.312L407.113 423.893H409.434V443H407.764V429.271L407.834 425.58L396.496 443H394.229V423.893H395.881Z"
          fill="#A8A8A8"/>
    <path d="M314.27 231.102H270.803C258.906 231.102 249.232 240.775 249.232 252.672V286.007C249.232 297.903 258.906 307.577 270.803 307.577H314.27C326.166 307.577 335.84 297.903 335.84 286.007V252.672C335.84 240.775 326.166 231.102 314.27 231.102ZM320.152 286.007C320.152 289.275 317.472 291.89 314.27 291.89H270.803C267.534 291.89 264.92 289.21 264.92 286.007V252.672C264.92 249.403 267.6 246.789 270.803 246.789H314.27C317.538 246.789 320.152 249.469 320.152 252.672V286.007Z"
          fill="#E2E2E2"/>
    <path d="M406.891 170.509C406.891 169.137 406.564 167.83 405.845 166.653L358.26 82.9872C356.888 80.5687 354.273 79 351.462 79H142.363C139.553 79 136.938 80.5034 135.565 82.9872L88.0458 166.653C87.3922 167.83 87 169.137 87 170.509C87 189.269 98.308 205.348 114.453 212.473V350.456C114.453 354.77 117.982 358.3 122.297 358.3H165.633C165.698 358.3 165.764 358.3 165.829 358.3H226.617C226.683 358.3 226.748 358.3 226.813 358.3H371.529C375.843 358.3 379.373 354.77 379.373 350.456V213.454C379.373 213.127 379.373 212.865 379.307 212.604C395.518 205.479 406.891 189.334 406.891 170.509ZM146.939 94.7527H346.887L384.079 160.182H109.812L146.939 94.7527ZM314.663 175.804C312.179 189.923 299.825 200.642 284.987 200.642C270.15 200.642 257.796 189.923 255.312 175.804H314.663ZM238.644 175.804C236.16 189.923 223.807 200.642 208.969 200.642C194.131 200.642 181.778 189.923 179.228 175.804H238.644ZM103.21 175.804H162.626C160.142 189.923 147.723 200.642 132.885 200.642C118.048 200.708 105.694 189.923 103.21 175.804ZM218.774 342.613H173.673V257.966C173.673 251.822 178.64 246.789 184.85 246.789H207.662C213.806 246.789 218.839 251.757 218.839 257.966V342.613H218.774ZM363.685 342.613H234.461V257.966C234.461 243.194 222.434 231.102 207.596 231.102H184.784C170.012 231.102 157.92 243.129 157.92 257.966V342.678H130.14V216.33C131.055 216.395 131.97 216.395 132.885 216.395C148.704 216.395 162.691 208.355 170.927 196.132C179.163 208.355 193.151 216.395 208.969 216.395C224.787 216.395 238.71 208.355 247.011 196.132C255.247 208.355 269.235 216.395 284.987 216.395C300.805 216.395 314.728 208.355 322.964 196.132C331.2 208.355 345.187 216.395 361.006 216.395C361.921 216.395 362.77 216.33 363.685 216.33V342.613ZM361.006 200.708C346.168 200.708 333.814 189.988 331.33 175.869H390.746C388.197 189.923 375.843 200.708 361.006 200.708Z"
          fill="#E2E2E2"/>
</svg>
