<svg width="20" height="20" fill="none" xmlns="http://www.w3.org/2000/svg"><g clip-path="url(#clip0)" fill="#9E9E9E"><path d="M19 15.882h-2.188c.002-.021.012-.038.012-.059v-2.118a1 1 0 00-1-1h-2.188c.002-.02.012-.038.012-.059V10.53a1 1 0 00-1-1H7.354a1 1 0 00-1 1v2.117c0 .021.01.039.012.06H4.178a1 1 0 00-1 1v2.117c0 .021.01.038.012.059H1a1 1 0 00-1 1V19a1 1 0 001 1h18a1 1 0 001-1v-2.117a1 1 0 00-1-1zm-3.176-2.177v2.118H10.53v-2.118h5.294zm-8.47-3.176h5.294v2.117H7.354V10.53zm-3.176 3.176H9.47v2.118H4.178v-2.118zM6.295 19H1v-2.117h5.294V19zm6.353 0H7.354v-2.117h5.294V19zM19 19h-5.294v-2.117H19V19z"/><path d="M14.081.293a1 1 0 00-1.088-.218L6.983 2.55a1 1 0 00-.327 1.632L8.07 5.597l-.53.53-2.227-.318a.5.5 0 00-.425.141l-.707.707a1 1 0 00-1.414 0L.292 9.132a1 1 0 000 1.414l.707.707a1 1 0 001.415 0l2.475-2.475a1 1 0 000-1.415l.53-.53 2.227.318a.5.5 0 00.425-.141l.707-.707 1.414 1.414a1 1 0 001.632-.326l2.475-6.01A1 1 0 0014.08.293zM1.706 10.546L1 9.839l2.475-2.475.707.707-2.475 2.475zM10.9 7.01L9.483 5.596l1.06-1.06a.5.5 0 10-.706-.708l-1.06 1.06-1.415-1.413L13.373 1 10.9 7.01z"/></g><defs><clipPath id="clip0"><path fill="#fff" d="M0 0h20v20H0z"/></clipPath></defs></svg>