<svg width="20" height="20" fill="none" xmlns="http://www.w3.org/2000/svg"><path d="M3.549 5.161c.551 0 .968-.693.968-1.613S4.1 1.936 3.549 1.936c-.552 0-.968.693-.968 1.612 0 .92.416 1.613.968 1.613zm0-2.58c.08 0 .322.343.322.967 0 .625-.242.968-.322.968-.08 0-.323-.343-.323-.968 0-.624.242-.967.323-.967z" fill="#9E9E9E"/><path d="M16.452 0H3.549C2.282 0 1.29 1.559 1.29 3.548v7.42c0 .712.577 1.29 1.29 1.29.227-.001.45-.063.645-.18v.825a1.29 1.29 0 002.58 0v-2.115c.196.117.419.178.646.18a1.29 1.29 0 001.29-1.29V7.096h8.71c.638 0 1.206-.397 1.613-1.044v.721a1.29 1.29 0 01-1.29 1.29h-5.162a1.937 1.937 0 00-1.906 1.613h-.352a.323.323 0 00-.323.323v.968H8.71a.323.323 0 00-.323.322v8.387c0 .179.145.323.323.323h2.58a.323.323 0 00.323-.323V11.29a.323.323 0 00-.322-.322h-.323V10a.323.323 0 00-.323-.323h-.276a1.29 1.29 0 011.244-.967h5.161a1.937 1.937 0 001.936-1.936V3.548c0-1.99-.992-3.548-2.258-3.548zM9.678 10.323h.645v.645h-.645v-.645zm1.29 1.29v7.742H9.032v-7.742h1.936zM3.548.645c.875 0 1.614 1.33 1.614 2.903 0 1.574-.74 2.904-1.613 2.904-.875 0-1.613-1.33-1.613-2.904 0-1.573.738-2.903 1.613-2.903zm3.549 9.032a.645.645 0 01-1.29 0V8.71H5.16v4.193a.645.645 0 11-1.29 0v-2.58h-.645v.645a.645.645 0 11-1.29 0V6.053c.406.647.975 1.044 1.613 1.044h3.548v2.58zm9.355-3.225H4.86c.653-.823.99-1.854.947-2.904A4.381 4.381 0 004.86.645h11.592c.874 0 1.613 1.33 1.613 2.903 0 1.574-.739 2.904-1.613 2.904z" fill="#9E9E9E"/><path d="M10.323 18.064h-.645v.646h.645v-.646z" fill="#9E9E9E"/></svg>