<svg width="20" height="20" fill="none" xmlns="http://www.w3.org/2000/svg"><path d="M19 10.667h-.333v-7c0-1.667-1.334-3-3-3-1.476 0-2.537 1.094-2.656 2.697A1.647 1.647 0 0011.667 5c0 .2.133.334.333.334h2.667c.2 0 .333-.134.333-.334 0-.813-.558-1.475-1.319-1.631.1-1.06.736-2.035 1.986-2.035 1.3 0 2.333 1.033 2.333 2.333v7H7.968a1.647 1.647 0 00-1.635-1.333c-.333-.4-.8-.667-1.333-.667-.633 0-1.2.367-1.467.9-.266-.133-.566-.233-.866-.233-.82 0-1.484.564-1.635 1.333H1c-.567 0-1 .433-1 1s.433 1 1 1h.4l.9 3.567A2.352 2.352 0 004.567 18h.266l-.433.867c-.1.167-.033.367.133.433.034.034.1.034.134.034a.35.35 0 00.3-.167L5.55 18h9.25l.567 1.134c.066.133.166.2.3.2.066 0 .1 0 .133-.067.133-.067.2-.267.133-.433l-.417-.835a2.36 2.36 0 002.184-1.732l.908-3.6H19c.567 0 1-.433 1-1s-.433-1-1-1zm-4.7-6h-1.9c.133-.4.533-.667.967-.667.433 0 .8.267.933.667zM2.667 10c.3 0 .566.134.8.367.066.1.2.133.333.1s.2-.133.233-.267c.1-.5.5-.866 1-.866.367 0 .7.166.867.5.067.133.233.2.367.166h.1c.433 0 .8.267.933.667H1.733c.134-.4.5-.667.934-.667zM17.1 16.067a1.71 1.71 0 01-1.633 1.267H4.6a1.71 1.71 0 01-1.633-1.267l-.867-3.4h15.8l-.8 3.4zM19 12H1c-.2 0-.333-.133-.333-.333s.133-.333.333-.333h18c.2 0 .333.133.333.333S19.2 12 19 12z" fill="#9E9E9E"/><path d="M12 6.833c.2 0 .334-.133.334-.333v-.167c0-.2-.134-.333-.334-.333s-.333.133-.333.333V6.5c0 .2.133.333.333.333zm0 1.534c.2 0 .334-.166.334-.333v-.367c0-.2-.134-.333-.334-.333s-.333.133-.333.333v.367c0 .2.133.333.333.333zm0 1.3c.2 0 .334-.133.334-.333v-.167c0-.2-.134-.333-.334-.333s-.333.133-.333.333v.167c0 .2.133.333.333.333zm1.334-2.834c.2 0 .333-.133.333-.333v-.167c0-.2-.133-.333-.333-.333S13 6.133 13 6.333V6.5c0 .2.133.333.333.333zM13 8.033c0 .2.134.334.334.334s.333-.167.333-.334v-.366c0-.2-.133-.334-.333-.334S13 7.467 13 7.667v.366zm0 1.3c0 .2.134.333.334.333s.333-.133.333-.333v-.167c0-.2-.133-.333-.333-.333S13 8.966 13 9.166v.167zm1.667-2.5c.2 0 .334-.133.334-.333v-.167c0-.2-.134-.333-.334-.333s-.333.133-.333.333V6.5c0 .2.133.333.333.333zm-.334 1.2c0 .2.133.334.333.334S15 8.2 15 8.033v-.366c0-.2-.134-.334-.334-.334s-.333.134-.333.334v.366zm0 1.3c0 .2.133.333.333.333S15 9.533 15 9.333v-.167c0-.2-.134-.333-.334-.333s-.333.133-.333.333v.167z" fill="#9E9E9E"/></svg>