<svg width="20" height="20" fill="none" xmlns="http://www.w3.org/2000/svg"><g clip-path="url(#clip0)" fill="#9E9E9E"><path d="M10 3.759a4.664 4.664 0 00-4.667 4.65c.01.5.093.995.245 1.47.225.506.485.995.779 1.465.682 1.189 1.713 2.987 1.713 3.655 0 .184.149.334.333.334h3.193c.184 0 .334-.15.334-.334 0-.668 1.03-2.466 1.713-3.655.293-.47.553-.96.778-1.465.152-.475.235-.97.245-1.47A4.664 4.664 0 0010 3.76zm3.789 5.907c-.217.461-.459.91-.725 1.345-.86 1.5-1.59 2.822-1.763 3.655H8.7c-.173-.833-.904-2.155-1.763-3.654-.267-.435-.51-.884-.727-1.346-.128-.407-.2-.83-.21-1.256a4 4 0 018 0 4.54 4.54 0 01-.211 1.256zm-2.166 9.528a.334.334 0 00-.456-.122l-.456.262H9.29l-.456-.262a.334.334 0 00-.333.578l.533.306c.05.03.108.045.166.045h1.6a.335.335 0 00.167-.045l.534-.306a.333.333 0 00.122-.456zm.042-3.161a.333.333 0 00-.365-.298L8.634 16a.333.333 0 00.033.665l.033-.001 2.667-.267a.333.333 0 00.298-.365zm0 1a.333.333 0 00-.365-.298l-2.666.267a.333.333 0 00.033.665c.01 0 .022 0 .033-.002l2.667-.267a.333.333 0 00.298-.365zm0 1a.333.333 0 00-.365-.298L8.634 18a.333.333 0 00.033.665l.033-.001 2.667-.267a.333.333 0 00.298-.365zM10 0a.333.333 0 00-.333.334v2.333a.333.333 0 00.667 0V.334A.333.333 0 0010 0zm6.137 2.538a.333.333 0 00-.472-.008l-.008.008-1.65 1.65a.333.333 0 10.463.48l.008-.009 1.65-1.65a.333.333 0 00.009-.471zm2.196 5.795H16a.333.333 0 000 .666h2.333a.333.333 0 000-.666zm-2.205 5.99l-1.65-1.65a.333.333 0 00-.471.472l1.65 1.65a.333.333 0 00.471-.472zM5.984 12.674a.333.333 0 00-.463 0l-1.65 1.65a.333.333 0 00.471.471l1.65-1.65a.333.333 0 00-.008-.471zM4 8.333H1.667a.333.333 0 000 .666H4a.333.333 0 000-.666zm1.993-4.145l-1.65-1.65a.333.333 0 10-.472.471l1.65 1.65a.333.333 0 00.471-.471z"/><path d="M12.098 9.015a.333.333 0 00-.203.002L10 9.65l-1.894-.632a.333.333 0 00-.424.414l1.333 4.334a.333.333 0 00.637-.197L8.51 9.854l1.386.462a.33.33 0 00.21 0l1.386-.462-1.143 3.715a.333.333 0 00.638.195l1.333-4.333a.333.333 0 00-.221-.416z"/></g><defs><clipPath id="clip0"><path fill="#fff" d="M0 0h20v20H0z"/></clipPath></defs></svg>