<svg width="20" height="20" fill="none" xmlns="http://www.w3.org/2000/svg"><g clip-path="url(#clip0)" fill="#9E9E9E"><path d="M.064 1.835l1.333 2.334c.045.079.12.136.209.158l1.244.311 4.268 4.268.472-.471L3.255 4.1a.333.333 0 00-.155-.088l-1.195-.3L.769 1.724 1.743.75l1.989 1.137.3 1.196a.333.333 0 00.088.155l4.334 4.335.472-.472-4.268-4.268-.311-1.244a.334.334 0 00-.158-.209L1.854.047a.333.333 0 00-.4.053L.121 1.434a.333.333 0 00-.057.401zm5.243 12.333a.333.333 0 00-.286-.162h-2a.333.333 0 00-.286.162l-1 1.667a.333.333 0 000 .343l1 1.668c.06.1.169.161.286.161h2a.334.334 0 00.286-.161l1-1.668a.333.333 0 000-.343l-1-1.667zm-.474 3.172H3.209l-.8-1.333.8-1.334h1.624l.8 1.334-.8 1.333z"/><path d="M16.024 8.004a3.988 3.988 0 003.879-4.969.333.333 0 00-.56-.155l-2.075 2.074-1.647-.549-.549-1.646L17.148.683a.333.333 0 00-.157-.56 3.989 3.989 0 00-4.887 4.66l-7.302 7.303a3.936 3.936 0 00-.782-.081 4.001 4.001 0 104.002 4.001 3.944 3.944 0 00-.081-.781l1.748-1.748.764.764c.13.13.342.13.472 0l.167-.167a.374.374 0 01.53.528l-.002.001-.166.167a.333.333 0 000 .472l3.977 3.977a2.691 2.691 0 103.824-3.789l-.018-.017-3.977-3.977a.333.333 0 00-.472 0l-.166.166a.373.373 0 11-.53-.528l.167-.167a.334.334 0 000-.472l-.764-.764 1.748-1.749c.257.054.519.08.781.082zm1.31 11.337a2 2 0 01-.709-.13l2.604-2.604a2.022 2.022 0 01-1.895 2.734zm-3.777-8.667a1.04 1.04 0 001.467 1.466l3.742 3.745c.04.04.079.084.115.127l-2.85 2.851a1.949 1.949 0 01-.128-.115l-3.745-3.746a1.04 1.04 0 00-1.467-1.465l-.534-.533 2.866-2.862.534.532zm1.346-3.353L7.34 14.883a.334.334 0 00-.088.317 3.357 3.357 0 11-2.425-2.425.336.336 0 00.317-.088l7.563-7.562a.333.333 0 00.087-.317 3.319 3.319 0 013.42-4.135l-1.758 1.76a.333.333 0 00-.08.34l.666 2.002a.332.332 0 00.211.21l2 .667c.12.04.253.009.342-.08l1.759-1.76a3.318 3.318 0 01-4.134 3.42.334.334 0 00-.317.089h.001z"/><path d="M17.262 16.77l-.472.472-3.334-3.334.471-.471 3.335 3.334z"/></g><defs><clipPath id="clip0"><path fill="#fff" d="M0 0h20v20H0z"/></clipPath></defs></svg>