<svg xmlns="http://www.w3.org/2000/svg" width="13.333" height="13.333"><path d="M12.667 13.333H8a.667.667 0 01-.667-.667V8A.667.667 0 018 7.333h4.667a.667.667 0 01.666.667v4.667a.667.667 0 01-.666.666zm-4-4.667V12H12V8.666zm-3.334 4.667H.667A.667.667 0 010 12.667V8a.667.667 0 01.667-.667h4.666A.667.667 0 016 8v4.667a.667.667 0 01-.667.666zm-4-4.667V12h3.334V8.666zM12.667 6H8a.667.667 0 01-.667-.667V.667A.667.667 0 018 0h4.667a.667.667 0 01.667.667v4.666a.667.667 0 01-.667.667zm-4-4.667v3.334H12V1.333zM5.333 6H.667A.667.667 0 010 5.333V.667A.667.667 0 01.667 0h4.666A.667.667 0 016 .667v4.666A.667.667 0 015.333 6zm-4-4.667v3.334h3.334V1.333z"/></svg>