<svg width="40" height="41" fill="none" xmlns="http://www.w3.org/2000/svg"><rect x="19" y="9" width="10" height="32" rx="1" fill="url(#paint0_linear)"/><path d="M30.719 8.273a4.42 4.42 0 001.18-3.015c0-2.446-1.954-4.399-4.32-4.399-1.798 0-5.938 2.688-7.595 5.102-1.71-2.414-5.836-5.024-7.562-5.024-2.36 0-4.32 1.954-4.32 4.399 0 1.133.421 2.156 1.101 2.93H.86v10.507h2.282v20.368h33.726V18.78h2.274V8.273H30.72zm-3.14-5.78c1.468 0 2.687 1.218 2.687 2.85 0 1.376-.961 2.555-2.203 2.805h-6.61c-.422-.125-.555-.273-.555-.359 0-1.39 4.883-5.297 6.68-5.297zm-15.157 0c1.71 0 6.68 3.905 6.68 5.296 0 .125-.29.266-.5.36h-6.657c-1.242-.25-2.203-1.43-2.203-2.805-.008-1.555 1.219-2.852 2.68-2.852zm2.687 35.015H4.766V18.78h10.343v18.727zm0-20.274H2.492V9.906h12.625v7.328h-.008zm8.141 20.274h-6.516V9.898h6.516v27.61zm11.977 0H24.883V18.78h10.344v18.727zM37.5 17.234H24.883V9.906h12.625v7.328H37.5z" fill="#2D2B45"/><defs><linearGradient id="paint0_linear" x1="14" y1="25" x2="32.221" y2="30.694" gradientUnits="userSpaceOnUse"><stop stop-color="#FCCF31"/><stop offset="1" stop-color="#F55555"/></linearGradient></defs></svg>