<svg xmlns="http://www.w3.org/2000/svg" width="16" height="16"><defs><clipPath id="a"><path d="M2.148 12.518a7.333 7.333 0 1110.37-10.37 7.333 7.333 0 11-10.37 10.37zm-.815-5.185a6 6 0 106-6 6.007 6.007 0 00-6 6zM6.667 10V8h-2a.667.667 0 010-1.333h2v-2a.667.667 0 011.333 0v2h2A.667.667 0 0110 8H8v2a.667.667 0 01-1.333 0z"/></clipPath></defs><path data-name="Combined Shape" d="M2.815 13.185a7.333 7.333 0 1110.37-10.37 7.333 7.333 0 11-10.37 10.37zM2 8a6 6 0 106-6 6.007 6.007 0 00-6 6zm5.334 2.667v-2h-2a.667.667 0 010-1.333h2v-2a.667.667 0 011.333 0v2h2a.667.667 0 010 1.333h-2v2a.667.667 0 01-1.333 0z"/><g clip-path="url(#a)" transform="translate(.667 .667)"><g data-name="COLOR/ black"><rect data-name="🔹 Icon Color" width="16" height="16" rx="4" fill="#00b273" transform="translate(-.667 -.667)"/></g></g></svg>