<svg width="40" height="40" fill="none" xmlns="http://www.w3.org/2000/svg"><path d="M21.529 31.911a9.026 9.026 0 100-18.052 9.026 9.026 0 000 18.052z" fill="url(#paint0_linear)"/><path d="M19.901 10.555c-5.474 0-9.913 4.44-9.913 9.914 0 5.475 4.439 9.914 9.913 9.914 5.475 0 9.914-4.489 9.914-9.914 0-5.426-4.439-9.914-9.914-9.914zm0 18.052c-4.488 0-8.187-3.65-8.187-8.187 0-4.538 3.7-8.139 8.187-8.139 4.489 0 8.188 3.65 8.188 8.188 0 4.537-3.7 8.138-8.188 8.138z" fill="#2D2B45"/><path d="M35.487 3.847c-.247-.148-.543-.197-.79-.099-1.726.691-3.403 1.036-5.03 1.036-5.722 0-9.026-4.39-9.026-4.439C20.493.1 20.197 0 19.951 0a.863.863 0 00-.691.345c-.05.05-3.305 4.39-9.026 4.44-1.628 0-3.304-.346-5.03-1.037-.247-.098-.593-.098-.79.1-.246.147-.394.443-.394.739v18.052c0 6.313 4.932 14.402 15.733 17.312.05 0 .148.049.247.049.098 0 .148 0 .246-.05C31.048 37.04 35.98 28.953 35.98 22.64V4.538c-.099-.296-.246-.543-.493-.69zM34.106 22.59c0 5.623-4.44 12.824-14.205 15.537-9.766-2.713-14.205-9.914-14.205-15.537V5.771c1.53.493 3.01.74 4.489.74 5.03 0 8.385-2.861 9.716-4.292 1.381 1.43 4.686 4.291 9.717 4.291 1.48 0 2.959-.246 4.488-.74v16.82z" fill="#2D2B45"/><path d="M16.203 20.253l2.784 2.785 4.81-4.81" stroke="#2D2B45" stroke-width="2" stroke-linecap="round"/><defs><linearGradient id="paint0_linear" x1="3.477" y1="22.885" x2="21.529" y2="40.937" gradientUnits="userSpaceOnUse"><stop stop-color="#FCCF31"/><stop offset="1" stop-color="#F55555"/></linearGradient></defs></svg>