<svg width="54" height="34" fill="none" xmlns="http://www.w3.org/2000/svg"><path d="M0 5a5 5 0 015-5h27v19H0V5z" fill="url(#paint0_linear)"/><path d="M53.03 17.653L48.304 8.45a1.418 1.418 0 00-1.262-.77h-7.677V6.479a4.257 4.257 0 00-4.252-4.252H6.294A4.257 4.257 0 002.04 6.479v18.19a4.258 4.258 0 003.34 4.15C5.877 31.756 8.432 34 11.507 34c3.04 0 5.573-2.192 6.11-5.078h14.219c.54 2.885 3.071 5.078 6.111 5.078 3.04 0 5.573-2.193 6.111-5.08h7.709c.783 0 1.417-.634 1.417-1.417V18.3c0-.225-.053-.447-.156-.647zm-13.664-7.138h6.812l3.27 6.368H39.365v-6.368zm-27.858 20.65a3.39 3.39 0 01-3.386-3.386 3.39 3.39 0 013.386-3.386 3.39 3.39 0 013.386 3.386 3.39 3.39 0 01-3.386 3.387zm20.46-5.078h-14.48c-.74-2.61-3.137-4.529-5.98-4.529a6.23 6.23 0 00-5.925 4.33 1.412 1.412 0 01-.707-1.219V6.48a1.42 1.42 0 011.418-1.417h28.82a1.42 1.42 0 011.417 1.417v15.249a6.235 6.235 0 00-4.563 4.358zm5.98 5.079a3.39 3.39 0 01-3.386-3.387 3.39 3.39 0 013.386-3.386 3.39 3.39 0 013.386 3.386 3.39 3.39 0 01-3.386 3.387zm12.402-5.08h-6.42a6.235 6.235 0 00-4.563-4.358v-2.01H50.35v6.369z" fill="#2D2B45"/><defs><linearGradient id="paint0_linear" x1="-16" y1="9.5" x2=".682" y2="37.595" gradientUnits="userSpaceOnUse"><stop stop-color="#FCCF31"/><stop offset="1" stop-color="#F55555"/></linearGradient></defs></svg>