<svg xmlns="http://www.w3.org/2000/svg" width="24" height="24" viewBox="-4 -4 20 20"><defs><clipPath id="a"><path d="M10.667 13.333a.667.667 0 01-.667-.666v-1.334a2 2 0 00-2-2H3.334a2 2 0 00-2 2v1.333a.667.667 0 01-1.333 0v-1.333A3.337 3.337 0 013.334 8H8a3.337 3.337 0 013.334 3.334v1.333a.667.667 0 01-.667.666zm2.666-4.667A.667.667 0 0112.667 8V6.667h-1.334a.667.667 0 110-1.333h1.333V4A.667.667 0 1114 4v1.333h1.334a.667.667 0 110 1.333H14V8a.667.667 0 01-.667.666zm-7.667-2A3.333 3.333 0 119 3.334a3.337 3.337 0 01-3.334 3.333zm0-5.333a2 2 0 102 2 2 2 0 00-2-2z"/></clipPath></defs><path data-name="Combined Shape" d="M10.667 14.666A.667.667 0 0110 14v-1.334a2 2 0 00-2-2H3.334a2 2 0 00-2 2v1.333a.667.667 0 01-1.333 0v-1.333a3.337 3.337 0 013.333-3.333H8a3.337 3.337 0 013.334 3.334V14a.667.667 0 01-.667.666zm2.666-4.667a.667.667 0 01-.666-.666V8h-1.334a.667.667 0 110-1.333h1.333V5.333a.667.667 0 111.334 0v1.333h1.334a.667.667 0 110 1.333H14v1.334a.667.667 0 01-.667.666zm-7.667-2A3.333 3.333 0 119 4.667 3.337 3.337 0 015.666 8zm0-5.333a2 2 0 102 2 2 2 0 00-2-2z"/><g clip-path="url(#a)" transform="translate(0 1.333)"><g data-name="🎨Color"><rect data-name="🔹 Icon Color" width="16" height="16" rx="4" fill="#2196f3" transform="translate(0 -1.333)"/></g></g></svg>