<svg width="40" height="40" fill="none" xmlns="http://www.w3.org/2000/svg"><g clip-path="url(#clip0)"><path d="M13.068 22.13l9.285-17.167c.438-.833 1.49-1.14 2.321-.701l12.176 6.57c.832.437 1.139 1.488.7 2.32l-4.86 8.979H13.067z" fill="url(#paint0_linear)"/><path d="M35.623 6.846l-6.57-3.548-4.38-2.365-1.225-.657c-1.183-.613-2.716-.175-3.373 1.007l-7.182 13.27H4.22a1.964 1.964 0 00-1.971 1.972v21.503c0 1.096.876 1.972 1.97 1.972h27.724a1.963 1.963 0 001.971-1.971v-5.037h.832c.438 0 .788-.35.788-.788v-5.738a.785.785 0 00-.788-.788h-.832v-5.65c0-.92-.657-1.708-1.533-1.927l4.248-7.883a2.477 2.477 0 00-1.007-3.372zM21.477 2.028c.219-.438.832-.613 1.27-.394l1.226.657-8.54 15.767h-2.628l8.672-16.03zm5.474 1.883l-7.62 14.147h-2.146L25.33 3.035l1.62.876zM4.221 16.087h7.883l-1.05 1.927H4.22c-.132 0-.307 0-.438.044V16.48c0-.175.175-.394.438-.394zM33.959 27.21v4.205H29.36a.785.785 0 01-.788-.789v-2.671c0-.438.35-.789.788-.789h4.6v.044zm-4.599-1.533A2.337 2.337 0 0027.04 28v2.672a2.337 2.337 0 002.321 2.321h3.022v5.037a.439.439 0 01-.438.438H4.221a.439.439 0 01-.438-.438v-18c0-.22.175-.439.438-.439h27.723c.22 0 .438.176.438.438v5.65H29.36zm5.913-16.205l-4.643 8.585h-9.547l7.226-13.402 6.57 3.547c.481.263.657.832.394 1.27z" fill="#2D2B45"/><path d="M32.294 8.729l-.394-.22c-.963-.525-2.277-.13-2.803.833l-.481.92c-.263.481-.307 1.05-.176 1.576.176.526.526.964 1.008 1.226l.394.22c.306.175.657.262.963.262a2.1 2.1 0 001.84-1.095l.482-.92c.262-.481.306-1.05.175-1.576a2.155 2.155 0 00-1.008-1.226zm-.525 2.058l-.482.92a.51.51 0 01-.7.219l-.395-.22c-.131-.043-.219-.175-.262-.306a.426.426 0 01.043-.394l.482-.92a.482.482 0 01.438-.263c.088 0 .175 0 .263.044l.394.22c.131.043.219.174.263.306a.426.426 0 01-.044.394z" fill="#4C4947"/></g><defs><linearGradient id="paint0_linear" x1="25.409" y1="4.063" x2="25.409" y2="22.131" gradientUnits="userSpaceOnUse"><stop stop-color="#FCC733"/><stop offset="1" stop-color="#F55755"/></linearGradient><clipPath id="clip0"><path fill="#fff" d="M0 0h40v40H0z"/></clipPath></defs></svg>